<svg viewBox="0 0 69 69" id="69-logo" xmlns="http://www.w3.org/2000/svg">
  <g id="69" transform="translate(-57.475,-66.901)">
      <path
         d="m 74.74612,133.53632 c -1.99,0 -3.795,-0.363 -5.417,-1.09 -1.622,-0.726 -2.989,-1.723 -4.103,-2.988 -1.114,-1.266 -2.055,-2.782 -2.822,-4.553 -0.768,-1.77 -1.325,-3.679 -1.67,-5.73 -0.346,-2.051 -0.519,-4.224 -0.519,-6.521 V 92.404384 c 0,-2.578 0.141,-4.962 0.422,-7.154 0.281,-2.191 0.767,-4.289 1.459,-6.293 0.692,-2.004 1.578,-3.709 2.66,-5.115 1.081,-1.406 2.47,-2.519 4.167,-3.34 1.697,-0.82 3.638,-1.23 5.822,-1.23 4.67,0 8.259,1.436 10.768,4.307 2.508,2.871 3.762,6.896 3.762,12.076 h -8.303 c 0,-3 -0.449,-5.25 -1.346,-6.75 -0.898,-1.5 -2.525,-2.25 -4.881,-2.25 -4.151,0 -6.227,4.5 -6.227,13.5 v 9 c 1.6,-3 4.367,-4.5 8.303,-4.5 2.335,0 4.33,0.439 5.984,1.318 1.654,0.879 2.94,2.157 3.859,3.832 0.919,1.675956 1.584,3.556936 1.995,5.641936 0.411,2.087 0.616,4.488 0.616,7.207 0,2.953 -0.271,5.655 -0.811,8.104 -0.541,2.449 -1.374,4.646 -2.498,6.592 -1.125,1.946 -2.638,3.463 -4.541,4.553 -1.9,1.088 -4.128,1.633 -6.679,1.633 z m -3.048,-8.332 c 0.843,0.633 1.859,0.949 3.049,0.949 1.189,0 2.206,-0.316 3.049,-0.949 0.843,-0.633 1.486,-1.512 1.93,-2.637 0.443,-1.125 0.762,-2.314 0.957,-3.568 0.195,-1.253 0.292,-2.619 0.292,-4.096 0,-0.891 0,-1.564 0,-2.021 0,-0.457 -0.016,-1.107 -0.049,-1.951 -0.032,-0.844 -0.076,-1.494 -0.129,-1.951 -0.054,-0.457 -0.13,-1.037 -0.227,-1.74 -0.098,-0.703 -0.222,-1.248 -0.373,-1.635 -0.151,-0.387 -0.341,-0.844 -0.567,-1.371 -0.227,-0.527 -0.492,-0.931 -0.795,-1.212 -0.303,-0.281 -0.648,-0.563 -1.038,-0.84399 -0.39,-0.28099 -0.843,-0.47999 -1.362,-0.59799 -0.519,-0.11699 -1.082,-0.17599 -1.687,-0.17599 -2.681,0 -4.757,1.49997 -6.227,4.49997 v 9 c 0,1.5 0.097,2.871 0.292,4.113 0.195,1.243 0.514,2.426 0.957,3.551 0.441,1.124 1.084,2.003 1.928,2.636 z"
         fill="#0b67b2"
         id="6"
         shape-rendering="geometricPrecision" />
      <path
         d="m 109.2221,133.53632 c -4.67,0 -8.26,-1.436 -10.76798,-4.307 -2.508,-2.87 -3.762,-6.896 -3.762,-12.076 h 8.30298 c 0,3.001 0.449,5.251 1.346,6.75 0.897,1.5 2.524,2.25 4.881,2.25 4.152,0 6.228,-4.5 6.228,-13.5 v -9 c -1.644,3.001 -4.411,4.5 -8.303,4.5 -2.335,0 -4.33,-0.439 -5.984,-1.318 -1.65398,-0.879 -2.93998,-2.156 -3.85898,-3.832 -0.919,-1.67497 -1.584,-3.555936 -1.995,-5.642936 -0.411,-2.086 -0.616,-4.488 -0.616,-7.207 0,-2.953 0.27,-5.654 0.811,-8.104 0.541,-2.449 1.373,-4.646 2.498,-6.592 1.124,-1.945 2.63798,-3.463 4.54098,-4.553 1.902,-1.09 4.13,-1.635 6.681,-1.635 1.989,0 3.795,0.364 5.417,1.09 1.622,0.727 2.989,1.723 4.103,2.988 1.113,1.266 2.054,2.783 2.821,4.553 0.768,1.77 1.324,3.68 1.67,5.73 0.346,2.051 0.519,4.225 0.519,6.521 v 20.249936 c 0,2.579 -0.141,4.963 -0.422,7.154 -0.281,2.192 -0.768,4.289 -1.459,6.293 -0.691,2.004 -1.579,3.709 -2.659,5.115 -1.082,1.406 -2.471,2.52 -4.168,3.34 -1.7,0.823 -3.639,1.233 -5.824,1.233 z m 0,-32.13197 c 2.638,0 4.714,-1.499966 6.228,-4.499966 v -9 c 0,-1.5 -0.098,-2.871 -0.292,-4.113 -0.195,-1.242 -0.514,-2.426 -0.957,-3.551 -0.443,-1.125 -1.086,-2.004 -1.93,-2.637 -0.844,-0.633 -1.86,-0.949 -3.049,-0.949 -1.189,0 -2.205,0.316 -3.048,0.949 -0.843,0.633 -1.487,1.512 -1.93,2.637 -0.443,1.125 -0.762,2.315 -0.957,3.568 -0.195,1.254 -0.292,2.619 -0.292,4.096 0,0.891 0,1.564 0,2.021 0,0.457 0.016,1.107 0.049,1.951 0.032,0.844 0.075,1.494 0.13,1.951 0.054,0.457 0.129,1.037 0.227,1.74 0.098,0.703 0.222,1.248 0.373,1.635 0.151,0.387 0.341,0.844 0.568,1.371 0.227,0.527 0.491,0.932 0.794,1.213 0.303,0.280996 0.649,0.562996 1.038,0.843986 0.389,0.28099 0.843,0.47999 1.362,0.59798 0.519,0.118 1.081,0.176 1.686,0.176 z"
         fill="#f15623"
         id="9"
         shape-rendering="geometricPrecision" />
  </g>
</svg>
